<svg xmlns="http://www.w3.org/2000/svg" width="239.175" height="120.123" viewBox="0 0 239.175 120.123">
  <defs>
    <clipPath clipPathUnits="userSpaceOnUse" id="a">
      <path d="M0 0h612v792H0z"/>
    </clipPath>
    <clipPath clipPathUnits="userSpaceOnUse" id="b">
      <path d="M0 0h612v792H0z"/>
    </clipPath>
    <clipPath clipPathUnits="userSpaceOnUse" id="c">
      <path d="M0 0h612v792H0z"/>
    </clipPath>
  </defs>
  <g transform="translate(-327.711 -579.872)">
    <g transform="matrix(5.625 0 0 -5.625 -7.133 1891.129)" fill="#fff">
      <g clip-path="url(#a)">
        <g transform="translate(100.471 226.975)">
          <path d="m0 0c0-.153-.118-.27-.27-.27-.154 0-.271.117-.271.27 0 .154.117.27.271.27C-.118.27 0 .154 0 0m.052 0c0 .184-.141.322-.322.322-.184 0-.323-.138-.323-.322 0-.183.139-.322.323-.322.181 0 .322.139.322.322m-.176.076c0 .073-.052.106-.115.106h-.154v-.352h.06v.136h.067l.069-.136h.071l-.071.142c.044.014.073.048.073.104m-.06-.002c0-.034-.024-.05-.057-.05h-.092v.101h.092c.033 0 .057-.018.057-.051" fill-rule="nonzero"/>
        </g>
      </g>
    </g>
    <path d="M566.886 683.667h-15.266v15.272h15.266z" fill="#fff" fill-rule="nonzero"/>
    <g transform="matrix(5.625 0 0 -5.625 520.641 615.67)" fill="#fff">
      <path d="M0 0l1.617-12.134L3.231 0h2.519L3.394-14.803h-3.582L-2.519 0z" fill-rule="nonzero"/>
    </g>
    <g transform="matrix(5.625 0 0 -5.625 -7.133 1891.129)" fill="#fff">
      <g clip-path="url(#b)">
        <g transform="translate(60.924 226.747)">
          <path d="M0 0h-1.397v-1.967H0v-12.836h2.455v12.836h1.725V0H2.455v3.009c0 .439.091.775.303 1.005.213.228.538.336.979.336h.442v2.014h-.888C2.2 6.364 1.149 6.133.649 5.658.149 5.183 0 4.446 0 3.396V0z" fill-rule="nonzero"/>
        </g>
      </g>
    </g>
    <path d="M363.394 698.933h13.843v-83.267h-13.843z" fill="#fff" fill-rule="nonzero"/>
    <g transform="matrix(5.625 0 0 -5.625 -7.133 1891.129)" fill="#fff">
      <g clip-path="url(#c)">
        <g transform="translate(79.695 218.508)">
          <path d="M0 0h5.13v4.562C5.124 7.291 3.812 8.41 1.326 8.41c-2.585 0-3.797-1.116-3.797-3.866v-7.497c.008-2.501 1.522-3.795 3.796-3.795s3.799 1.065 3.805 3.795v1.186h-2.377l.003-1.405C2.756-4.174 2.381-4.867 1.375-4.867.367-4.867 0-4.168 0-3.171V0zm0 5.053c0 .835.217 1.7 1.368 1.7 1.15 0 1.383-.852 1.383-1.699V2.006H0v3.047z" fill-rule="nonzero"/>
        </g>
        <g transform="translate(73.865 220.36)">
          <path d="M0 0c-1.867 1.621-2.012 1.856-2.012 3.064 0 1.029.089 1.655 1.014 1.655.924 0 1.044-.618 1.044-1.667V1.685h2.372v2.23C2.41 5.666 1.063 6.556-1.053 6.556c-2.081 0-3.438-.693-3.45-3.492-.002-.476.001-.476 0-.292.004-.88.008-2.275 2.183-4.141l.624-.534c1.603-1.352 1.778-1.515 1.771-3.123-.001-.991-.062-1.742-1.102-1.742s-1.105.757-1.105 1.224v1.894h-2.49v-1.954c0-2.405 1.565-3 3.592-3 2.029 0 3.596.601 3.596 3.695v.257C2.561-2.49 2.17-1.91 0 0" fill-rule="nonzero"/>
        </g>
        <g transform="translate(88.119 225.224)">
          <path d="M0 0v1.524h-2.243v-14.802h2.42v10.316c-.001.797.259 1.322.711 1.632.428.295.955.395 1.626.405v2.619C1.23 1.667.676 1.414.025.054L0 0z" fill-rule="nonzero"/>
        </g>
      </g>
    </g>
  </g>
</svg>
